<svg xmlns="http://www.w3.org/2000/svg" xmlns:xlink="http://www.w3.org/1999/xlink" width="100" zoomAndPan="magnify" viewBox="0 0 75 74.999997" height="100" preserveAspectRatio="xMidYMid meet" version="1.0"><defs><filter x="0%" y="0%" width="100%" height="100%" id="3a72257322"><feColorMatrix values="0 0 0 0 1 0 0 0 0 1 0 0 0 0 1 0 0 0 1 0" color-interpolation-filters="sRGB"/></filter><clipPath id="946a341505"><path d="M 1.410156 4.726562 L 73.410156 4.726562 L 73.410156 60.226562 L 1.410156 60.226562 Z M 1.410156 4.726562 " clip-rule="nonzero"/></clipPath><clipPath id="31a91f3d30"><path d="M 2 49 L 6 49 L 6 53.25 L 2 53.25 Z M 2 49 " clip-rule="nonzero"/></clipPath><mask id="86a8ec0300"><g filter="url(#3a72257322)"><rect x="-7.5" width="90" fill="#000000" y="-7.5" height="89.999996" fill-opacity="0.33"/></g></mask><clipPath id="b49128a137"><path d="M 0.878906 0.679688 L 2.800781 0.679688 L 2.800781 3.558594 L 0.878906 3.558594 Z M 0.878906 0.679688 " clip-rule="nonzero"/></clipPath><clipPath id="3632497f32"><rect x="0" width="3" y="0" height="4"/></clipPath><clipPath id="9e8f4f193d"><path d="M 1.410156 43 L 9 43 L 9 53.25 L 1.410156 53.25 Z M 1.410156 43 " clip-rule="nonzero"/></clipPath><clipPath id="66ab9f7575"><path d="M 1.410156 43 L 9 43 L 9 53 L 1.410156 53 Z M 1.410156 43 " clip-rule="nonzero"/></clipPath><mask id="58dae29790"><g filter="url(#3a72257322)"><rect x="-7.5" width="90" fill="#000000" y="-7.5" height="89.999996" fill-opacity="0.22"/></g></mask><clipPath id="f00115706f"><path d="M 0.441406 0.199219 L 7.398438 0.199219 L 7.398438 9.558594 L 0.441406 9.558594 Z M 0.441406 0.199219 " clip-rule="nonzero"/></clipPath><clipPath id="eab48d7f56"><rect x="0" width="8" y="0" height="10"/></clipPath><clipPath id="7b7c1ac1c8"><path d="M 1.410156 52 L 3 52 L 3 53.25 L 1.410156 53.25 Z M 1.410156 52 " clip-rule="nonzero"/></clipPath><clipPath id="af61d72a4a"><path d="M 11 38 L 19.410156 38 L 19.410156 47 L 11 47 Z M 11 38 " clip-rule="nonzero"/></clipPath><mask id="8e9d0c87d2"><g filter="url(#3a72257322)"><rect x="-7.5" width="90" fill="#000000" y="-7.5" height="89.999996" fill-opacity="0.22"/></g></mask><clipPath id="9bf41532e5"><path d="M 0.519531 0.839844 L 5.800781 0.839844 L 5.800781 2 L 0.519531 2 Z M 0.519531 0.839844 " clip-rule="nonzero"/></clipPath><clipPath id="320052d3f3"><rect x="0" width="6" y="0" height="3"/></clipPath><mask id="661d55c2a6"><g filter="url(#3a72257322)"><rect x="-7.5" width="90" fill="#000000" y="-7.5" height="89.999996" fill-opacity="0.22"/></g></mask><clipPath id="c4b1547d88"><path d="M 0.519531 0.800781 L 6.761719 0.800781 L 6.761719 2.238281 L 0.519531 2.238281 Z M 0.519531 0.800781 " clip-rule="nonzero"/></clipPath><clipPath id="c85a444a53"><rect x="0" width="7" y="0" height="3"/></clipPath><mask id="318b179330"><g filter="url(#3a72257322)"><rect x="-7.5" width="90" fill="#000000" y="-7.5" height="89.999996" fill-opacity="0.22"/></g></mask><clipPath id="60e03d8f3f"><path d="M 0.640625 0.398438 L 4.71875 0.398438 L 4.71875 1.839844 L 0.640625 1.839844 Z M 0.640625 0.398438 " clip-rule="nonzero"/></clipPath><clipPath id="8be9087ef7"><rect x="0" width="5" y="0" height="2"/></clipPath><clipPath id="f69ddb6ae5"><path d="M 8 37.5 L 14 37.5 L 14 43 L 8 43 Z M 8 37.5 " clip-rule="nonzero"/></clipPath><mask id="02d60c9ad3"><g filter="url(#3a72257322)"><rect x="-7.5" width="90" fill="#000000" y="-7.5" height="89.999996" fill-opacity="0.11"/></g></mask><clipPath id="ac3ea07b5a"><path d="M 0 0.839844 L 3.601562 0.839844 L 3.601562 2.761719 L 0 2.761719 Z M 0 0.839844 " clip-rule="nonzero"/></clipPath><clipPath id="4e099bdd77"><rect x="0" width="4" y="0" height="3"/></clipPath><mask id="be92382bbf"><g filter="url(#3a72257322)"><rect x="-7.5" width="90" fill="#000000" y="-7.5" height="89.999996" fill-opacity="0.11"/></g></mask><clipPath id="fb3097729c"><path d="M 0 0.761719 L 0.960938 0.761719 L 0.960938 1.71875 L 0 1.71875 Z M 0 0.761719 " clip-rule="nonzero"/></clipPath><clipPath id="c065a1abf5"><rect x="0" width="1" y="0" height="2"/></clipPath><mask id="60b90857bc"><g filter="url(#3a72257322)"><rect x="-7.5" width="90" fill="#000000" y="-7.5" height="89.999996" fill-opacity="0.11"/></g></mask><clipPath id="0bcee704f4"><path d="M 0.359375 0.558594 L 1.800781 0.558594 L 1.800781 1.519531 L 0.359375 1.519531 Z M 0.359375 0.558594 " clip-rule="nonzero"/></clipPath><clipPath id="94318baee9"><rect x="0" width="2" y="0" height="2"/></clipPath><mask id="dc2eba05dd"><g filter="url(#3a72257322)"><rect x="-7.5" width="90" fill="#000000" y="-7.5" height="89.999996" fill-opacity="0.11"/></g></mask><clipPath id="5efb8790cb"><path d="M 0.398438 0.480469 L 3.28125 0.480469 L 3.28125 2.640625 L 0.398438 2.640625 Z M 0.398438 0.480469 " clip-rule="nonzero"/></clipPath><clipPath id="3c14881034"><rect x="0" width="4" y="0" height="3"/></clipPath><mask id="3827468209"><g filter="url(#3a72257322)"><rect x="-7.5" width="90" fill="#000000" y="-7.5" height="89.999996" fill-opacity="0.22"/></g></mask><clipPath id="a9aa37bf35"><path d="M 0.480469 0.761719 L 4.320312 0.761719 L 4.320312 3.160156 L 0.480469 3.160156 Z M 0.480469 0.761719 " clip-rule="nonzero"/></clipPath><clipPath id="78ca5081fe"><rect x="0" width="5" y="0" height="4"/></clipPath><mask id="c450e310a6"><g filter="url(#3a72257322)"><rect x="-7.5" width="90" fill="#000000" y="-7.5" height="89.999996" fill-opacity="0.22"/></g></mask><clipPath id="60fe7e5663"><path d="M 0.960938 0.078125 L 4.558594 0.078125 L 4.558594 2.238281 L 0.960938 2.238281 Z M 0.960938 0.078125 " clip-rule="nonzero"/></clipPath><clipPath id="b2c15c912a"><rect x="0" width="5" y="0" height="3"/></clipPath><mask id="de043ab33f"><g filter="url(#3a72257322)"><rect x="-7.5" width="90" fill="#000000" y="-7.5" height="89.999996" fill-opacity="0.11"/></g></mask><clipPath id="843834c754"><path d="M 0 0.839844 L 3.601562 0.839844 L 3.601562 2.761719 L 0 2.761719 Z M 0 0.839844 " clip-rule="nonzero"/></clipPath><clipPath id="8d52fb612b"><rect x="0" width="4" y="0" height="3"/></clipPath><mask id="d9c6c2cb38"><g filter="url(#3a72257322)"><rect x="-7.5" width="90" fill="#000000" y="-7.5" height="89.999996" fill-opacity="0.11"/></g></mask><clipPath id="5157875a74"><path d="M 0 0.761719 L 0.960938 0.761719 L 0.960938 1.71875 L 0 1.71875 Z M 0 0.761719 " clip-rule="nonzero"/></clipPath><clipPath id="74cdca80d4"><rect x="0" width="1" y="0" height="2"/></clipPath><mask id="93e33f9a1c"><g filter="url(#3a72257322)"><rect x="-7.5" width="90" fill="#000000" y="-7.5" height="89.999996" fill-opacity="0.22"/></g></mask><clipPath id="70ce896f1d"><path d="M 0.480469 0.761719 L 4.320312 0.761719 L 4.320312 3.160156 L 0.480469 3.160156 Z M 0.480469 0.761719 " clip-rule="nonzero"/></clipPath><clipPath id="2147c65bee"><rect x="0" width="5" y="0" height="4"/></clipPath></defs><g clip-path="url(#946a341505)"><path fill="#000000" d="M 58.546875 37.003906 L 54.0625 37.003906 L 54.0625 29.835938 L 55.691406 29.835938 L 55.691406 35.644531 L 58.546875 35.644531 Z M 50.183594 37.003906 L 45.597656 37.003906 L 45.597656 29.835938 L 50.03125 29.835938 L 50.03125 31.164062 L 47.230469 31.164062 L 47.230469 32.652344 L 49.871094 32.652344 L 49.871094 33.972656 L 47.230469 33.972656 L 47.230469 35.675781 L 50.183594 35.675781 Z M 41.964844 31.199219 L 40.003906 31.199219 L 40.003906 37.003906 L 38.371094 37.003906 L 38.371094 31.199219 L 36.445312 31.199219 L 36.445312 29.835938 L 41.964844 29.835938 Z M 29.921875 37.121094 C 27.789062 37.121094 26.542969 35.515625 26.542969 33.472656 C 26.542969 31.324219 27.917969 29.71875 30.039062 29.71875 C 32.242188 29.71875 33.449219 31.367188 33.449219 33.34375 C 33.449219 35.695312 32.019531 37.121094 29.921875 37.121094 Z M 22.683594 37.003906 L 21.0625 37.003906 L 21.0625 34.003906 L 18.386719 34.003906 L 18.386719 37.003906 L 16.757812 37.003906 L 16.757812 29.835938 L 18.386719 29.835938 L 18.386719 32.589844 L 21.0625 32.589844 L 21.0625 29.835938 L 22.683594 29.835938 Z M 18.914062 19.320312 L 56.441406 19.320312 L 56.441406 22.4375 L 18.914062 22.4375 Z M 69.65625 13.914062 C 68.179688 13.914062 66.90625 14.765625 66.289062 16 L 4.742188 16 L 4.742188 6.402344 C 4.742188 5.484375 3.996094 4.738281 3.074219 4.738281 C 2.15625 4.738281 1.410156 5.484375 1.410156 6.402344 L 1.410156 58.546875 C 1.410156 59.464844 2.15625 60.207031 3.074219 60.207031 C 3.996094 60.207031 4.742188 59.464844 4.742188 58.546875 L 4.742188 19.320312 L 15.585938 19.320312 L 15.585938 22.4375 L 13.214844 22.4375 C 11.179688 22.4375 9.519531 24.09375 9.519531 26.125 L 9.519531 41.066406 C 9.519531 43.097656 11.179688 44.753906 13.214844 44.753906 L 61.652344 44.753906 C 63.691406 44.753906 65.351562 43.097656 65.351562 41.066406 L 65.351562 26.125 C 65.351562 24.09375 63.691406 22.4375 61.652344 22.4375 L 59.769531 22.4375 L 59.769531 19.320312 L 66.289062 19.320312 C 66.90625 20.558594 68.179688 21.40625 69.65625 21.40625 C 71.730469 21.40625 73.410156 19.730469 73.410156 17.660156 C 73.410156 15.59375 71.730469 13.914062 69.65625 13.914062 " fill-opacity="1" fill-rule="nonzero"/></g><path fill="#000000" d="M 29.996094 31.003906 C 28.898438 31.003906 28.257812 32.046875 28.257812 33.441406 C 28.257812 34.84375 28.917969 35.835938 30.003906 35.835938 C 31.105469 35.835938 31.734375 34.792969 31.734375 33.398438 C 31.734375 32.113281 31.113281 31.003906 29.996094 31.003906 " fill-opacity="1" fill-rule="nonzero"/><g clip-path="url(#31a91f3d30)"><path fill="#dea32a" d="M 4.515625 50.769531 L 4.378906 50.988281 L 5.007812 51.378906 L 4.625 51.992188 L 3.996094 51.605469 L 3.855469 51.824219 L 4.847656 52.433594 L 4.460938 53.050781 L 2.96875 52.128906 L 3.492188 51.292969 L 3.132812 51.074219 L 3.515625 50.457031 L 3.875 50.679688 L 4.398438 49.84375 L 5.890625 50.765625 L 5.507812 51.378906 Z M 4.515625 50.769531 " fill-opacity="1" fill-rule="nonzero"/></g><g mask="url(#86a8ec0300)"><g transform="matrix(1, 0, 0, 1, 2, 49)"><g clip-path="url(#3632497f32)"><g clip-path="url(#b49128a137)"><path fill="#cb6ce6" d="M 2.757812 1.066406 L 1.328125 3.351562 L 0.96875 3.128906 L 1.492188 2.292969 L 1.238281 2.136719 L 1.621094 1.523438 L 1.875 1.679688 L 2.398438 0.84375 Z M 2.757812 1.066406 " fill-opacity="1" fill-rule="nonzero"/></g></g></g></g><g clip-path="url(#9e8f4f193d)"><path fill="#dea32a" d="M 1.539062 52.332031 L 7.203125 43.269531 L 8.371094 43.992188 L 2.707031 53.050781 Z M 1.539062 52.332031 " fill-opacity="1" fill-rule="nonzero"/></g><g clip-path="url(#66ab9f7575)"><g mask="url(#58dae29790)"><g transform="matrix(1, 0, 0, 1, 1, 43)"><g clip-path="url(#eab48d7f56)"><g clip-path="url(#f00115706f)"><path fill="#cb6ce6" d="M 7.371094 0.988281 L 7.125 1.382812 C 6.828125 1.296875 6.445312 1.128906 6.222656 0.828125 L 0.804688 9.496094 L 0.539062 9.332031 L 6.203125 0.269531 Z M 7.371094 0.988281 " fill-opacity="1" fill-rule="nonzero"/></g></g></g></g></g><g clip-path="url(#7b7c1ac1c8)"><path fill="#cb6ce6" d="M 2.238281 52.507812 C 2.402344 52.609375 2.527344 52.710938 2.617188 52.820312 C 2.710938 52.929688 2.738281 53.007812 2.707031 53.058594 C 2.671875 53.113281 2.589844 53.121094 2.449219 53.089844 C 2.3125 53.054688 2.164062 52.988281 2 52.890625 C 1.839844 52.789062 1.714844 52.683594 1.621094 52.578125 C 1.53125 52.46875 1.503906 52.390625 1.535156 52.339844 C 1.566406 52.285156 1.652344 52.277344 1.789062 52.308594 C 1.925781 52.34375 2.078125 52.410156 2.238281 52.507812 Z M 2.238281 52.507812 " fill-opacity="1" fill-rule="nonzero"/></g><path fill="#6a6458" d="M 5.871094 45.402344 L 5.941406 45.289062 L 7.113281 46.007812 L 7.039062 46.125 Z M 5.871094 45.402344 " fill-opacity="1" fill-rule="nonzero"/><path fill="#6a6458" d="M 5.585938 45.855469 L 5.660156 45.738281 L 6.828125 46.460938 L 6.757812 46.574219 Z M 5.585938 45.855469 " fill-opacity="1" fill-rule="nonzero"/><path fill="#6a6458" d="M 2.972656 50.035156 L 3.046875 49.921875 L 4.214844 50.640625 L 4.144531 50.757812 Z M 2.972656 50.035156 " fill-opacity="1" fill-rule="nonzero"/><g clip-path="url(#af61d72a4a)"><path fill="#dea32a" d="M 19.144531 43.800781 L 14.753906 38.898438 C 14.566406 38.6875 14.292969 38.570312 13.988281 38.5625 L 12.972656 38.542969 C 12.335938 38.527344 11.75 39.058594 11.710938 39.6875 L 11.699219 39.859375 L 11.652344 40.585938 L 11.648438 40.636719 C 11.640625 40.746094 11.648438 40.851562 11.671875 40.949219 C 11.707031 41.117188 11.785156 41.269531 11.898438 41.394531 L 16.304688 46.3125 C 16.566406 46.605469 17.050781 46.597656 17.390625 46.300781 L 19.007812 44.871094 C 19.34375 44.570312 19.40625 44.09375 19.144531 43.800781 Z M 12.65625 39.515625 C 12.867188 39.328125 13.191406 39.347656 13.378906 39.558594 C 13.496094 39.6875 13.53125 39.863281 13.492188 40.019531 C 13.464844 40.113281 13.414062 40.203125 13.335938 40.273438 C 13.125 40.460938 12.800781 40.441406 12.613281 40.230469 C 12.535156 40.144531 12.492188 40.035156 12.484375 39.929688 C 12.476562 39.777344 12.535156 39.625 12.65625 39.515625 Z M 12.65625 39.515625 " fill-opacity="1" fill-rule="nonzero"/></g><path fill="#cb6ce6" d="M 18.796875 43.652344 L 14.8125 39.207031 C 14.628906 39 14.367188 38.882812 14.082031 38.871094 L 13.179688 38.835938 C 12.894531 38.824219 12.601562 38.933594 12.378906 39.132812 C 12.160156 39.332031 12.023438 39.605469 12.007812 39.886719 C 12.007812 39.890625 12.007812 39.894531 12.007812 39.898438 L 11.976562 40.613281 L 11.96875 40.742188 C 11.964844 40.824219 11.972656 40.902344 11.984375 40.976562 C 12.015625 41.160156 12.097656 41.332031 12.222656 41.46875 L 16.21875 45.929688 C 16.480469 46.222656 16.957031 46.226562 17.277344 45.941406 L 18.6875 44.699219 C 19.007812 44.414062 19.058594 43.945312 18.796875 43.652344 Z M 17.1875 45.839844 C 16.921875 46.074219 16.53125 46.074219 16.320312 45.839844 L 12.324219 41.378906 C 12.226562 41.269531 12.160156 41.136719 12.128906 40.988281 C 12.109375 40.914062 12.105469 40.832031 12.109375 40.75 L 12.113281 40.625 L 12.144531 39.90625 C 12.144531 39.902344 12.144531 39.898438 12.144531 39.898438 C 12.160156 39.652344 12.277344 39.410156 12.472656 39.234375 C 12.667969 39.054688 12.921875 38.960938 13.175781 38.96875 L 14.074219 39.003906 C 14.324219 39.015625 14.550781 39.117188 14.710938 39.296875 L 18.695312 43.742188 C 18.90625 43.976562 18.863281 44.359375 18.597656 44.597656 Z M 17.1875 45.839844 " fill-opacity="1" fill-rule="nonzero"/><g mask="url(#8e9d0c87d2)"><g transform="matrix(1, 0, 0, 1, 11, 39)"><g clip-path="url(#320052d3f3)"><g clip-path="url(#9bf41532e5)"><path fill="#fac163" d="M 5.613281 1.972656 L 5.378906 1.953125 L 5.183594 1.941406 L 1.113281 1.625 L 0.976562 1.613281 L 0.652344 1.585938 L 0.699219 0.859375 L 1.011719 0.886719 L 1.144531 0.898438 L 1.488281 0.929688 C 1.496094 1.039062 1.535156 1.144531 1.613281 1.230469 C 1.800781 1.441406 2.125 1.460938 2.335938 1.273438 C 2.414062 1.203125 2.46875 1.113281 2.492188 1.019531 L 4.519531 1.203125 L 4.71875 1.21875 L 4.957031 1.238281 Z M 5.613281 1.972656 " fill-opacity="1" fill-rule="nonzero"/></g></g></g></g><g mask="url(#661d55c2a6)"><g transform="matrix(1, 0, 0, 1, 11, 40)"><g clip-path="url(#c85a444a53)"><g clip-path="url(#c4b1547d88)"><path fill="#fac163" d="M 6.664062 2.144531 L 1.191406 1.71875 L 0.898438 1.394531 C 0.785156 1.269531 0.707031 1.117188 0.671875 0.949219 L 6.019531 1.429688 Z M 6.664062 2.144531 " fill-opacity="1" fill-rule="nonzero"/></g></g></g></g><g mask="url(#318b179330)"><g transform="matrix(1, 0, 0, 1, 14, 44)"><g clip-path="url(#8be9087ef7)"><g clip-path="url(#60e03d8f3f)"><path fill="#fac163" d="M 4.675781 1.164062 L 4.175781 1.605469 L 1.339844 1.238281 L 0.792969 0.625 Z M 4.675781 1.164062 " fill-opacity="1" fill-rule="nonzero"/></g></g></g></g><g clip-path="url(#f69ddb6ae5)"><path fill="#fac163" d="M 13.269531 40.398438 C 13.332031 40.070312 13.335938 39.742188 13.277344 39.421875 C 13.246094 39.265625 13.203125 39.113281 13.148438 38.96875 C 13.128906 38.925781 13.109375 38.878906 13.089844 38.835938 C 13.039062 38.730469 12.984375 38.632812 12.921875 38.535156 C 12.738281 38.261719 12.503906 38.03125 12.222656 37.859375 C 11.941406 37.683594 11.632812 37.578125 11.300781 37.539062 C 10.984375 37.5 10.660156 37.527344 10.34375 37.617188 C 10.027344 37.707031 9.734375 37.855469 9.464844 38.054688 C 9.191406 38.265625 8.957031 38.519531 8.769531 38.820312 C 8.582031 39.117188 8.457031 39.4375 8.390625 39.777344 C 8.328125 40.105469 8.324219 40.433594 8.382812 40.753906 C 8.445312 41.074219 8.5625 41.375 8.738281 41.640625 C 8.921875 41.917969 9.15625 42.144531 9.4375 42.316406 C 9.71875 42.492188 10.027344 42.597656 10.359375 42.636719 C 10.675781 42.675781 11 42.648438 11.316406 42.558594 C 11.632812 42.46875 11.925781 42.320312 12.195312 42.121094 C 12.316406 42.027344 12.429688 41.925781 12.535156 41.816406 C 12.566406 41.785156 12.597656 41.75 12.625 41.714844 C 12.722656 41.605469 12.8125 41.484375 12.890625 41.359375 C 13.078125 41.058594 13.203125 40.738281 13.269531 40.398438 Z M 9.761719 41.796875 C 8.914062 41.273438 8.703125 40.082031 9.292969 39.140625 C 9.882812 38.195312 11.050781 37.855469 11.898438 38.378906 C 12.164062 38.539062 12.367188 38.769531 12.503906 39.035156 C 12.523438 39.078125 12.542969 39.117188 12.558594 39.160156 C 12.792969 39.726562 12.742188 40.433594 12.367188 41.035156 C 12.324219 41.105469 12.273438 41.171875 12.222656 41.238281 C 12.195312 41.277344 12.164062 41.3125 12.132812 41.347656 C 11.5 42.046875 10.507812 42.257812 9.761719 41.796875 Z M 9.761719 41.796875 " fill-opacity="1" fill-rule="nonzero"/></g><path fill="#dea32a" d="M 12.304688 38.734375 C 12.304688 38.734375 12.585938 38.523438 12.925781 38.535156 C 13.261719 38.546875 13.324219 39.503906 13.324219 39.503906 C 13.324219 39.503906 13.027344 39.296875 12.65625 39.515625 Z M 12.304688 38.734375 " fill-opacity="1" fill-rule="nonzero"/><path fill="#cb6ce6" d="M 18.796875 43.652344 L 14.8125 39.207031 C 14.628906 39 14.367188 38.882812 14.082031 38.871094 L 13.179688 38.835938 C 13.148438 38.832031 13.117188 38.832031 13.089844 38.835938 C 12.882812 38.84375 12.621094 38.957031 12.445312 39.078125 C 12.46875 39.121094 12.480469 39.164062 12.496094 39.207031 C 12.671875 39.082031 12.941406 38.96875 13.144531 38.96875 C 13.15625 38.96875 13.164062 38.96875 13.175781 38.96875 L 14.074219 39.007812 C 14.324219 39.015625 14.550781 39.121094 14.710938 39.296875 L 18.691406 43.742188 C 18.90625 43.980469 18.859375 44.363281 18.597656 44.597656 L 17.1875 45.84375 C 16.921875 46.078125 16.53125 46.074219 16.320312 45.839844 L 12.625 41.714844 L 12.324219 41.378906 C 12.285156 41.335938 12.25 41.289062 12.222656 41.238281 C 12.191406 41.277344 12.160156 41.3125 12.128906 41.347656 C 12.15625 41.390625 12.1875 41.433594 12.222656 41.46875 L 12.535156 41.816406 L 16.21875 45.929688 C 16.480469 46.222656 16.953125 46.230469 17.277344 45.945312 L 18.6875 44.699219 C 19.007812 44.414062 19.058594 43.945312 18.796875 43.652344 Z M 18.796875 43.652344 " fill-opacity="1" fill-rule="nonzero"/><path fill="#fac163" d="M 12.050781 41.429688 L 12.28125 41.171875 L 12.695312 41.628906 L 12.464844 41.886719 Z M 12.050781 41.429688 " fill-opacity="1" fill-rule="nonzero"/><path fill="#dea32a" d="M 11.253906 42.773438 C 11.253906 42.75 11.253906 42.726562 11.253906 42.703125 C 11.25 42.441406 11.1875 42.171875 11.070312 41.902344 C 10.964844 41.648438 10.8125 41.402344 10.625 41.175781 C 10.484375 41.007812 10.324219 40.847656 10.144531 40.703125 C 10.011719 40.59375 9.871094 40.492188 9.722656 40.402344 C 9.628906 40.34375 9.535156 40.289062 9.4375 40.242188 C 8.894531 39.964844 8.3125 39.835938 7.769531 39.867188 C 7.726562 39.867188 7.683594 39.871094 7.644531 39.875 C 7.371094 39.90625 7.121094 39.976562 6.902344 40.089844 C 6.628906 40.230469 6.414062 40.425781 6.261719 40.667969 C 6.222656 40.730469 6.1875 40.796875 6.15625 40.863281 C 6.070312 41.058594 6.027344 41.269531 6.023438 41.496094 C 6.023438 41.523438 6.023438 41.546875 6.023438 41.574219 C 6.027344 41.742188 6.054688 41.910156 6.101562 42.082031 C 6.128906 42.175781 6.164062 42.273438 6.207031 42.367188 C 6.242188 42.457031 6.285156 42.546875 6.335938 42.632812 C 6.605469 43.113281 7.027344 43.542969 7.554688 43.867188 C 7.832031 44.039062 8.121094 44.171875 8.414062 44.261719 C 8.78125 44.375 9.152344 44.425781 9.507812 44.402344 C 9.601562 44.398438 9.695312 44.386719 9.78125 44.371094 C 9.996094 44.335938 10.195312 44.269531 10.375 44.179688 C 10.589844 44.070312 10.773438 43.925781 10.914062 43.746094 C 10.949219 43.699219 10.984375 43.652344 11.015625 43.601562 C 11.167969 43.355469 11.25 43.078125 11.253906 42.773438 Z M 9.476562 43.859375 C 9.371094 43.867188 9.265625 43.863281 9.15625 43.855469 C 9 43.84375 8.839844 43.816406 8.679688 43.769531 C 8.390625 43.691406 8.109375 43.570312 7.84375 43.40625 C 7.578125 43.242188 7.339844 43.046875 7.144531 42.824219 C 7.035156 42.703125 6.941406 42.578125 6.863281 42.453125 C 6.804688 42.355469 6.753906 42.257812 6.710938 42.15625 C 6.671875 42.070312 6.644531 41.988281 6.621094 41.90625 C 6.621094 41.898438 6.617188 41.886719 6.613281 41.878906 C 6.570312 41.695312 6.558594 41.519531 6.582031 41.355469 C 6.601562 41.210938 6.652344 41.078125 6.726562 40.957031 C 6.789062 40.851562 6.875 40.761719 6.972656 40.6875 C 7.183594 40.523438 7.46875 40.429688 7.800781 40.410156 C 8.054688 40.394531 8.324219 40.425781 8.597656 40.5 C 8.632812 40.507812 8.667969 40.519531 8.703125 40.53125 C 8.953125 40.609375 9.199219 40.71875 9.433594 40.863281 C 9.460938 40.882812 9.488281 40.898438 9.515625 40.917969 C 9.71875 41.050781 9.902344 41.203125 10.0625 41.367188 C 10.085938 41.394531 10.109375 41.421875 10.132812 41.445312 C 10.308594 41.644531 10.449219 41.855469 10.546875 42.070312 C 10.554688 42.085938 10.5625 42.101562 10.566406 42.113281 C 10.707031 42.441406 10.742188 42.753906 10.671875 43.023438 C 10.648438 43.128906 10.605469 43.226562 10.550781 43.3125 C 10.488281 43.414062 10.410156 43.5 10.3125 43.574219 C 10.101562 43.742188 9.8125 43.839844 9.476562 43.859375 Z M 9.476562 43.859375 " fill-opacity="1" fill-rule="nonzero"/><g mask="url(#02d60c9ad3)"><g transform="matrix(1, 0, 0, 1, 6, 39)"><g clip-path="url(#4e099bdd77)"><g clip-path="url(#ac3ea07b5a)"><path fill="#ffffff" d="M 3.4375 1.242188 L 2.703125 1.53125 C 2.667969 1.519531 2.632812 1.507812 2.597656 1.5 C 2.324219 1.425781 2.054688 1.394531 1.800781 1.410156 C 1.46875 1.429688 1.183594 1.523438 0.972656 1.6875 C 0.875 1.761719 0.789062 1.851562 0.726562 1.957031 C 0.648438 2.078125 0.601562 2.210938 0.582031 2.355469 L 0.0234375 2.574219 C 0.0195312 2.546875 0.0195312 2.523438 0.0195312 2.496094 C 0.0234375 2.269531 0.0703125 2.058594 0.15625 1.863281 L 1.644531 0.875 C 1.683594 0.871094 1.726562 0.867188 1.769531 0.867188 C 2.3125 0.835938 2.894531 0.96875 3.4375 1.242188 Z M 3.4375 1.242188 " fill-opacity="1" fill-rule="nonzero"/></g></g></g></g><g mask="url(#be92382bbf)"><g transform="matrix(1, 0, 0, 1, 6, 41)"><g clip-path="url(#c065a1abf5)"><g clip-path="url(#fb3097729c)"><path fill="#ffffff" d="M 0.863281 1.453125 L 0.335938 1.632812 C 0.285156 1.546875 0.242188 1.457031 0.203125 1.367188 C 0.164062 1.273438 0.128906 1.175781 0.101562 1.082031 L 0.621094 0.90625 C 0.644531 0.988281 0.671875 1.070312 0.710938 1.15625 C 0.753906 1.257812 0.804688 1.355469 0.863281 1.453125 Z M 0.863281 1.453125 " fill-opacity="1" fill-rule="nonzero"/></g></g></g></g><g mask="url(#60b90857bc)"><g transform="matrix(1, 0, 0, 1, 9, 40)"><g clip-path="url(#94318baee9)"><g clip-path="url(#0bcee704f4)"><path fill="#ffffff" d="M 1.625 1.175781 L 1.0625 1.367188 C 0.902344 1.199219 0.71875 1.050781 0.515625 0.917969 L 1.144531 0.703125 C 1.324219 0.847656 1.480469 1.007812 1.625 1.175781 Z M 1.625 1.175781 " fill-opacity="1" fill-rule="nonzero"/></g></g></g></g><g mask="url(#dc2eba05dd)"><g transform="matrix(1, 0, 0, 1, 8, 42)"><g clip-path="url(#3c14881034)"><g clip-path="url(#5efb8790cb)"><path fill="#ffffff" d="M 3.015625 1.601562 C 2.984375 1.652344 2.949219 1.699219 2.914062 1.746094 L 1.78125 2.371094 C 1.691406 2.386719 1.601562 2.398438 1.507812 2.402344 C 1.152344 2.425781 0.78125 2.375 0.414062 2.261719 L 1.15625 1.855469 C 1.265625 1.863281 1.371094 1.867188 1.476562 1.859375 C 1.8125 1.839844 2.101562 1.742188 2.3125 1.574219 C 2.410156 1.5 2.488281 1.414062 2.550781 1.3125 C 2.605469 1.222656 2.648438 1.125 2.671875 1.023438 L 3.253906 0.703125 C 3.253906 0.726562 3.253906 0.75 3.253906 0.773438 C 3.25 1.078125 3.167969 1.355469 3.015625 1.601562 Z M 3.015625 1.601562 " fill-opacity="1" fill-rule="nonzero"/></g></g></g></g><g mask="url(#3827468209)"><g transform="matrix(1, 0, 0, 1, 6, 41)"><g clip-path="url(#78ca5081fe)"><g clip-path="url(#a9aa37bf35)"><path fill="#cb6ce6" d="M 4.066406 2.871094 C 3.410156 3.40625 2.28125 2.875 1.734375 2.5 C 0.710938 1.804688 0.621094 1.117188 0.613281 0.878906 C 0.636719 0.96875 0.667969 1.0625 0.710938 1.15625 C 0.808594 1.390625 0.953125 1.613281 1.140625 1.824219 C 1.339844 2.046875 1.574219 2.242188 1.84375 2.40625 C 2.109375 2.570312 2.390625 2.691406 2.679688 2.769531 C 2.953125 2.84375 3.222656 2.875 3.472656 2.859375 C 3.8125 2.839844 4.101562 2.742188 4.3125 2.574219 C 4.253906 2.683594 4.171875 2.785156 4.066406 2.871094 Z M 4.066406 2.871094 " fill-opacity="1" fill-rule="nonzero"/></g></g></g></g><g mask="url(#c450e310a6)"><g transform="matrix(1, 0, 0, 1, 6, 40)"><g clip-path="url(#b2c15c912a)"><g clip-path="url(#60fe7e5663)"><path fill="#cb6ce6" d="M 4.546875 2.070312 C 4.449219 1.851562 4.308594 1.644531 4.132812 1.445312 C 3.933594 1.222656 3.699219 1.027344 3.433594 0.863281 C 3.164062 0.699219 2.882812 0.574219 2.597656 0.496094 C 2.324219 0.425781 2.054688 0.394531 1.800781 0.410156 C 1.46875 0.429688 1.183594 0.523438 0.972656 0.683594 C 0.976562 0.679688 1.4375 -0.09375 2.867188 0.375 C 4.167969 0.800781 4.53125 1.746094 4.546875 2.070312 Z M 4.546875 2.070312 " fill-opacity="1" fill-rule="nonzero"/></g></g></g></g><g mask="url(#de043ab33f)"><g transform="matrix(1, 0, 0, 1, 6, 39)"><g clip-path="url(#8d52fb612b)"><g clip-path="url(#843834c754)"><path fill="#ffffff" d="M 3.4375 1.242188 L 2.703125 1.53125 C 2.667969 1.519531 2.632812 1.507812 2.597656 1.5 C 2.324219 1.425781 2.054688 1.394531 1.800781 1.410156 C 1.46875 1.429688 1.183594 1.523438 0.972656 1.6875 C 0.875 1.761719 0.789062 1.851562 0.726562 1.957031 C 0.648438 2.078125 0.601562 2.210938 0.582031 2.355469 L 0.0234375 2.574219 C 0.0195312 2.546875 0.0195312 2.523438 0.0195312 2.496094 C 0.0234375 2.269531 0.0703125 2.058594 0.15625 1.863281 L 1.644531 0.875 C 1.683594 0.871094 1.726562 0.867188 1.769531 0.867188 C 2.3125 0.835938 2.894531 0.96875 3.4375 1.242188 Z M 3.4375 1.242188 " fill-opacity="1" fill-rule="nonzero"/></g></g></g></g><g mask="url(#d9c6c2cb38)"><g transform="matrix(1, 0, 0, 1, 6, 41)"><g clip-path="url(#74cdca80d4)"><g clip-path="url(#5157875a74)"><path fill="#ffffff" d="M 0.863281 1.453125 L 0.335938 1.632812 C 0.285156 1.546875 0.242188 1.457031 0.203125 1.367188 C 0.164062 1.273438 0.128906 1.175781 0.101562 1.082031 L 0.621094 0.90625 C 0.644531 0.988281 0.671875 1.070312 0.710938 1.15625 C 0.753906 1.257812 0.804688 1.355469 0.863281 1.453125 Z M 0.863281 1.453125 " fill-opacity="1" fill-rule="nonzero"/></g></g></g></g><g mask="url(#93e33f9a1c)"><g transform="matrix(1, 0, 0, 1, 6, 41)"><g clip-path="url(#2147c65bee)"><g clip-path="url(#70ce896f1d)"><path fill="#cb6ce6" d="M 4.066406 2.871094 C 3.410156 3.40625 2.28125 2.875 1.734375 2.5 C 0.710938 1.804688 0.621094 1.117188 0.613281 0.878906 C 0.636719 0.96875 0.667969 1.0625 0.710938 1.15625 C 0.808594 1.390625 0.953125 1.613281 1.140625 1.824219 C 1.339844 2.046875 1.574219 2.242188 1.84375 2.40625 C 2.109375 2.570312 2.390625 2.691406 2.679688 2.769531 C 2.953125 2.84375 3.222656 2.875 3.472656 2.859375 C 3.8125 2.839844 4.101562 2.742188 4.3125 2.574219 C 4.253906 2.683594 4.171875 2.785156 4.066406 2.871094 Z M 4.066406 2.871094 " fill-opacity="1" fill-rule="nonzero"/></g></g></g></g><path fill="#fac163" d="M 10.511719 42.039062 C 10.511719 42.039062 10.808594 42.082031 11.105469 41.980469 L 11.460938 42.109375 L 11.246094 42.578125 C 11.246094 42.578125 10.925781 42.703125 10.664062 42.65625 Z M 10.511719 42.039062 " fill-opacity="1" fill-rule="nonzero"/></svg>