<svg xmlns="http://www.w3.org/2000/svg" xmlns:xlink="http://www.w3.org/1999/xlink" width="500" zoomAndPan="magnify" viewBox="0 0 375 374.999991" height="500" preserveAspectRatio="xMidYMid meet" version="1.0"><defs><clipPath id="0ca317d94e"><path d="M 68 18.75 L 318.441406 18.75 L 318.441406 356.25 L 68 356.25 Z M 68 18.75 " clip-rule="nonzero"/></clipPath></defs><rect x="-37.5" width="450" fill="#ffffff" y="-37.499999" height="449.999989" fill-opacity="1"/><rect x="-37.5" width="450" fill="#ffffff" y="-37.499999" height="449.999989" fill-opacity="1"/><path fill="#184a66" d="M 193.191406 24.195312 C 127.078125 24.195312 73.480469 77.8125 73.480469 143.953125 C 73.480469 210.089844 193.191406 350.804688 193.191406 350.804688 C 193.191406 350.804688 312.90625 210.089844 312.90625 143.953125 C 312.90625 77.8125 259.308594 24.195312 193.191406 24.195312 Z M 193.191406 237.171875 C 142.105469 237.171875 100.6875 195.738281 100.6875 144.632812 C 100.6875 93.523438 142.105469 52.089844 193.191406 52.089844 C 244.28125 52.089844 285.699219 93.523438 285.699219 144.632812 C 285.699219 195.738281 244.28125 237.171875 193.191406 237.171875 Z M 193.191406 237.171875 " fill-opacity="1" fill-rule="nonzero"/><path fill="#a0815c" d="M 253.050781 143.953125 L 253.050781 182.054688 L 236.726562 182.054688 L 236.726562 160.28125 L 149.660156 160.28125 L 149.660156 182.054688 L 133.335938 182.054688 L 133.335938 100.402344 L 149.660156 100.402344 L 149.660156 143.953125 Z M 253.050781 143.953125 " fill-opacity="1" fill-rule="nonzero"/><path fill="#e0e0e2" d="M 149.660156 122.175781 L 253.050781 122.175781 L 253.050781 143.953125 L 149.660156 143.953125 Z M 149.660156 122.175781 " fill-opacity="1" fill-rule="nonzero"/><g clip-path="url(#0ca317d94e)"><path fill="#000000" d="M 193.191406 18.75 C 124.179688 18.75 68.039062 74.914062 68.039062 143.953125 C 68.039062 211.324219 184.105469 348.527344 189.050781 354.339844 C 190.085938 355.550781 191.59375 356.25 193.191406 356.25 C 194.792969 356.25 196.300781 355.550781 197.335938 354.339844 C 202.28125 348.527344 318.347656 211.324219 318.347656 143.953125 C 318.347656 74.914062 262.203125 18.75 193.191406 18.75 Z M 193.191406 342.300781 C 172.214844 316.867188 78.921875 200.515625 78.921875 143.953125 C 78.921875 80.914062 130.179688 29.636719 193.191406 29.636719 C 256.207031 29.636719 307.464844 80.914062 307.464844 143.953125 C 307.464844 200.496094 214.171875 316.859375 193.191406 342.300781 Z M 193.191406 342.300781 " fill-opacity="1" fill-rule="nonzero"/></g><path fill="#000000" d="M 193.191406 46.648438 C 139.1875 46.648438 95.246094 90.605469 95.246094 144.632812 C 95.246094 198.660156 139.1875 242.617188 193.191406 242.617188 C 247.199219 242.617188 291.140625 198.660156 291.140625 144.632812 C 291.140625 90.605469 247.199219 46.648438 193.191406 46.648438 Z M 193.191406 231.730469 C 145.183594 231.730469 106.128906 192.65625 106.128906 144.632812 C 106.128906 96.605469 145.183594 57.535156 193.191406 57.535156 C 241.199219 57.535156 280.257812 96.605469 280.257812 144.632812 C 280.257812 192.65625 241.199219 231.730469 193.191406 231.730469 Z M 193.191406 231.730469 " fill-opacity="1" fill-rule="nonzero"/><path fill="#000000" d="M 253.050781 116.734375 L 155.101562 116.734375 L 155.101562 100.402344 C 155.101562 97.394531 152.667969 94.960938 149.660156 94.960938 L 133.335938 94.960938 C 130.328125 94.960938 127.894531 97.394531 127.894531 100.402344 L 127.894531 182.054688 C 127.894531 185.0625 130.328125 187.5 133.335938 187.5 L 149.660156 187.5 C 152.667969 187.5 155.101562 185.0625 155.101562 182.054688 L 155.101562 165.726562 L 231.285156 165.726562 L 231.285156 182.054688 C 231.285156 185.0625 233.71875 187.5 236.726562 187.5 L 253.050781 187.5 C 256.054688 187.5 258.492188 185.0625 258.492188 182.054688 L 258.492188 122.175781 C 258.492188 119.167969 256.054688 116.734375 253.050781 116.734375 Z M 247.609375 176.613281 L 242.167969 176.613281 L 242.167969 160.28125 C 242.167969 157.273438 239.730469 154.839844 236.726562 154.839844 L 149.660156 154.839844 C 146.65625 154.839844 144.21875 157.273438 144.21875 160.28125 L 144.21875 176.613281 L 138.777344 176.613281 L 138.777344 105.847656 L 144.21875 105.847656 L 144.21875 143.953125 C 144.21875 146.960938 146.65625 149.394531 149.660156 149.394531 L 247.609375 149.394531 Z M 247.609375 138.507812 L 155.101562 138.507812 L 155.101562 127.621094 L 247.609375 127.621094 Z M 247.609375 138.507812 " fill-opacity="1" fill-rule="nonzero"/></svg>